<svg width="1895" height="163" viewBox="0 0 1895 163" fill="none" xmlns="http://www.w3.org/2000/svg">
<mask id="path-1-outside-1_18_3" maskUnits="userSpaceOnUse" x="0" y="0" width="1895" height="163" fill="black">
<rect fill="white" width="1895" height="163"/>
<path d="M2.65 6.48H57.67C104.99 6.48 128.65 31.4 128.65 81.24C128.65 105.04 122.98 123.45 111.64 136.47C100.44 149.49 83.85 156 61.87 156H2.65V6.48ZM33.73 129.75H57.88C72.3 129.75 82.52 126.04 88.54 118.62C94.56 111.06 97.57 98.6 97.57 81.24C97.57 63.6 94.42 50.86 88.12 43.02C81.54 35.46 70.06 31.68 53.68 31.68H33.73V129.75ZM180.156 156H149.076V6.48H180.156V156ZM295.933 84.18C303.353 85.72 308.673 88.52 311.893 92.58C315.113 96.5 317.213 101.82 318.193 108.54L324.283 156H292.363L288.793 117.57C288.093 110.71 285.993 105.74 282.493 102.66C279.133 99.58 273.673 98.04 266.113 98.04H238.603V156H207.523V6.48H277.243C293.763 6.48 305.803 10.33 313.363 18.03C320.783 25.87 324.493 35.74 324.493 47.64C324.493 66.96 314.973 79.14 295.933 84.18ZM238.603 32.52V72.84H268.423C276.963 72.84 283.333 71.02 287.533 67.38C291.873 63.6 294.043 58.42 294.043 51.84C294.043 45.82 292.223 41.13 288.583 37.77C285.083 34.27 279.763 32.52 272.623 32.52H238.603ZM380.722 91.74V129.75H460.522V156H349.642V6.48H458.422V32.73H380.722V65.07H450.652V91.74H380.722ZM545.743 160.83C525.443 160.83 508.783 153.55 495.763 138.99C482.743 124.43 476.233 105.18 476.233 81.24C476.233 57.44 482.813 38.47 495.973 24.33C509.273 10.19 526.003 3.11999 546.163 3.11999C564.363 3.11999 579.063 7.87999 590.263 17.4C601.463 26.78 607.763 39.66 609.163 56.04H579.553C578.293 47.78 574.863 41.41 569.263 36.93C563.803 32.31 556.593 30 547.633 30C535.033 30 525.163 34.62 518.023 43.86C510.883 53.1 507.313 65.56 507.313 81.24C507.313 97.48 510.883 110.36 518.023 119.88C525.163 129.26 535.033 133.95 547.633 133.95C556.733 133.95 564.013 131.5 569.473 126.6C574.933 121.7 578.293 115.19 579.553 107.07H608.953C607.693 123.87 601.463 137.03 590.263 146.55C579.063 156.07 564.223 160.83 545.743 160.83ZM618.688 6.48H739.438V34.2H694.708V156H663.628V34.2H618.688V6.48ZM899.718 74.73C919.038 79.63 928.698 92.09 928.698 112.11C928.698 124.85 924.428 135.28 915.888 143.4C907.348 151.8 895.308 156 879.768 156H809.838V6.48H879.348C893.068 6.48 903.918 9.77 911.897 16.35C920.018 22.79 924.078 31.68 924.078 43.02C924.078 51 921.978 57.72 917.778 63.18C913.578 68.64 907.558 72.49 899.718 74.73ZM873.888 31.68H840.918V64.23H872.628C879.628 64.23 884.878 62.76 888.378 59.82C891.878 56.88 893.628 52.82 893.628 47.64C893.628 37 887.048 31.68 873.888 31.68ZM840.918 129.75H874.308C882.148 129.75 888.098 127.93 892.158 124.29C896.218 120.65 898.248 115.61 898.248 109.17C898.248 102.87 896.288 98.04 892.368 94.68C888.448 91.18 882.918 89.43 875.778 89.43H840.918V129.75ZM1067.25 138.78C1053.53 153.48 1036.52 160.83 1016.22 160.83C995.917 160.83 979.117 153.48 965.817 138.78C952.377 124.22 945.657 104.97 945.657 81.03C945.657 57.51 952.307 38.54 965.607 24.12C978.907 9.97999 995.777 2.90999 1016.22 2.90999C1036.52 2.90999 1053.53 9.97999 1067.25 24.12C1080.83 38.26 1087.62 57.23 1087.62 81.03C1087.62 104.97 1080.83 124.22 1067.25 138.78ZM987.447 119.46C994.447 129.12 1004.04 133.95 1016.22 133.95C1028.4 133.95 1038.2 129.12 1045.62 119.46C1052.9 109.94 1056.54 97.13 1056.54 81.03C1056.54 65.63 1052.9 53.24 1045.62 43.86C1038.34 34.48 1028.54 29.79 1016.22 29.79C1003.9 29.79 994.307 34.48 987.447 43.86C980.307 53.38 976.737 65.77 976.737 81.03C976.737 96.99 980.307 109.8 987.447 119.46ZM1223.93 138.78C1210.21 153.48 1193.2 160.83 1172.9 160.83C1152.6 160.83 1135.8 153.48 1122.5 138.78C1109.06 124.22 1102.34 104.97 1102.34 81.03C1102.34 57.51 1108.99 38.54 1122.29 24.12C1135.59 9.97999 1152.46 2.90999 1172.9 2.90999C1193.2 2.90999 1210.21 9.97999 1223.93 24.12C1237.51 38.26 1244.3 57.23 1244.3 81.03C1244.3 104.97 1237.51 124.22 1223.93 138.78ZM1144.13 119.46C1151.13 129.12 1160.72 133.95 1172.9 133.95C1185.08 133.95 1194.88 129.12 1202.3 119.46C1209.58 109.94 1213.22 97.13 1213.22 81.03C1213.22 65.63 1209.58 53.24 1202.3 43.86C1195.02 34.48 1185.22 29.79 1172.9 29.79C1160.58 29.79 1150.99 34.48 1144.13 43.86C1136.99 53.38 1133.42 65.77 1133.42 81.03C1133.42 96.99 1136.99 109.8 1144.13 119.46ZM1395.94 156H1357.51L1310.26 87.33L1296.4 101.19V156H1265.32V6.48H1296.4V64.23L1349.32 6.48H1389.01L1332.31 66.54L1395.94 156ZM1441.8 156H1410.72V6.48H1441.8V156ZM1558.83 102.45V6.48H1589.91V156H1559.46L1500.24 60.03V156H1469.16V6.48H1499.61L1558.83 102.45ZM1683.38 75.15H1745.75V156H1725.59L1720.76 139.83C1712.08 152.85 1698.15 159.36 1678.97 159.36C1659.51 159.36 1643.34 152.22 1630.46 137.94C1617.44 123.94 1610.93 105.04 1610.93 81.24C1610.93 57.44 1617.51 38.54 1630.67 24.54C1643.69 10.4 1660.35 3.32999 1680.65 3.32999C1698.71 3.32999 1713.27 7.73999 1724.33 16.56C1735.39 25.24 1742.18 37.63 1744.7 53.73L1714.25 55.62C1712.71 47.5 1709.21 41.2 1703.75 36.72C1698.29 32.24 1691.15 30 1682.33 30C1669.73 30 1659.86 34.62 1652.72 43.86C1645.58 53.1 1642.01 65.56 1642.01 81.24C1642.01 97.34 1645.58 110.15 1652.72 119.67C1659.86 129.19 1669.73 133.95 1682.33 133.95C1691.99 133.95 1700.11 131.15 1706.69 125.55C1713.27 119.81 1717.33 111.69 1718.87 101.19H1683.38V75.15ZM1774.35 6.48H1892.79V30.63L1810.26 129.54H1892.79V156H1769.1V131.85L1851.63 32.94H1774.35V6.48Z"/>
</mask>
<path d="M2.65 6.48V4.48H0.650001V6.48H2.65ZM111.64 136.47L110.132 135.156L110.124 135.166L111.64 136.47ZM2.65 156H0.650001V158H2.65V156ZM33.73 129.75H31.73V131.75H33.73V129.75ZM88.54 118.62L90.0931 119.88L90.0989 119.873L90.1046 119.866L88.54 118.62ZM88.12 43.02L89.679 41.7672L89.6544 41.7366L89.6286 41.7069L88.12 43.02ZM33.73 31.68V29.68H31.73V31.68H33.73ZM2.65 6.48V8.48H57.67V6.48V4.48H2.65V6.48ZM57.67 6.48V8.48C80.9945 8.48 98.1273 14.6165 109.455 26.5471C120.8 38.4971 126.65 56.6031 126.65 81.24H128.65H130.65C130.65 56.0369 124.67 36.7629 112.355 23.7929C100.023 10.8035 81.6655 4.48 57.67 4.48V6.48ZM128.65 81.24H126.65C126.65 104.74 121.052 122.618 110.132 135.156L111.64 136.47L113.148 137.784C124.908 124.282 130.65 105.34 130.65 81.24H128.65ZM111.64 136.47L110.124 135.166C99.4047 147.627 83.4425 154 61.87 154V156V158C84.2575 158 101.475 151.353 113.156 137.774L111.64 136.47ZM61.87 156V154H2.65V156V158H61.87V156ZM2.65 156H4.65V6.48H2.65H0.650001V156H2.65ZM33.73 129.75V131.75H57.88V129.75V127.75H33.73V129.75ZM57.88 129.75V131.75C72.5898 131.75 83.5324 127.967 90.0931 119.88L88.54 118.62L86.9869 117.36C81.5076 124.113 72.0103 127.75 57.88 127.75V129.75ZM88.54 118.62L90.1046 119.866C96.556 111.764 99.57 98.7331 99.57 81.24H97.57H95.57C95.57 98.4669 92.564 110.356 86.9754 117.374L88.54 118.62ZM97.57 81.24H99.57C99.57 63.4526 96.4111 50.1449 89.679 41.7672L88.12 43.02L86.561 44.2728C92.4289 51.5751 95.57 63.7474 95.57 81.24H97.57ZM88.12 43.02L89.6286 41.7069C82.4843 33.4986 70.2809 29.68 53.68 29.68V31.68V33.68C69.8391 33.68 80.5957 37.4214 86.6114 44.333L88.12 43.02ZM53.68 31.68V29.68H33.73V31.68V33.68H53.68V31.68ZM33.73 31.68H31.73V129.75H33.73H35.73V31.68H33.73ZM180.156 156V158H182.156V156H180.156ZM149.076 156H147.076V158H149.076V156ZM149.076 6.48V4.48H147.076V6.48H149.076ZM180.156 6.48H182.156V4.48H180.156V6.48ZM180.156 156V154H149.076V156V158H180.156V156ZM149.076 156H151.076V6.48H149.076H147.076V156H149.076ZM149.076 6.48V8.48H180.156V6.48V4.48H149.076V6.48ZM180.156 6.48H178.156V156H180.156H182.156V6.48H180.156ZM295.933 84.18L295.421 82.2466L295.527 86.1383L295.933 84.18ZM311.893 92.58L310.326 93.8228L310.337 93.8362L310.348 93.8495L311.893 92.58ZM318.193 108.54L320.177 108.285L320.175 108.268L320.172 108.251L318.193 108.54ZM324.283 156V158H326.556L326.267 155.745L324.283 156ZM292.363 156L290.372 156.185L290.54 158H292.363V156ZM288.793 117.57L290.784 117.385L290.784 117.376L290.783 117.367L288.793 117.57ZM282.493 102.66L281.142 104.134L281.157 104.148L281.172 104.161L282.493 102.66ZM238.603 98.04V96.04H236.603V98.04H238.603ZM238.603 156V158H240.603V156H238.603ZM207.523 156H205.523V158H207.523V156ZM207.523 6.48V4.48H205.523V6.48H207.523ZM313.363 18.03L314.816 16.6552L314.803 16.6419L314.79 16.6288L313.363 18.03ZM238.603 32.52V30.52H236.603V32.52H238.603ZM238.603 72.84H236.603V74.84H238.603V72.84ZM287.533 67.38L288.843 68.8914L288.847 68.8882L287.533 67.38ZM288.583 37.77L287.169 39.1842L287.197 39.2125L287.226 39.2396L288.583 37.77ZM295.933 84.18L295.527 86.1383C302.694 87.6259 307.506 90.2666 310.326 93.8228L311.893 92.58L313.46 91.3372C309.84 86.7733 304.012 83.8141 296.339 82.2217L295.933 84.18ZM311.893 92.58L310.348 93.8495C313.271 97.4082 315.269 102.351 316.214 108.829L318.193 108.54L320.172 108.251C319.157 101.289 316.955 95.5918 313.439 91.3105L311.893 92.58ZM318.193 108.54L316.209 108.795L322.299 156.255L324.283 156L326.267 155.745L320.177 108.285L318.193 108.54ZM324.283 156V154H292.363V156V158H324.283V156ZM292.363 156L294.354 155.815L290.784 117.385L288.793 117.57L286.802 117.755L290.372 156.185L292.363 156ZM288.793 117.57L290.783 117.367C290.056 110.241 287.84 104.701 283.814 101.159L282.493 102.66L281.172 104.161C284.146 106.779 286.13 111.179 286.803 117.773L288.793 117.57ZM282.493 102.66L283.845 101.186C279.938 97.605 273.865 96.04 266.113 96.04V98.04V100.04C273.481 100.04 278.328 101.555 281.142 104.134L282.493 102.66ZM266.113 98.04V96.04H238.603V98.04V100.04H266.113V98.04ZM238.603 98.04H236.603V156H238.603H240.603V98.04H238.603ZM238.603 156V154H207.523V156V158H238.603V156ZM207.523 156H209.523V6.48H207.523H205.523V156H207.523ZM207.523 6.48V8.48H277.243V6.48V4.48H207.523V6.48ZM277.243 6.48V8.48C293.506 8.48 304.911 12.2762 311.936 19.4312L313.363 18.03L314.79 16.6288C306.695 8.38379 294.02 4.48 277.243 4.48V6.48ZM313.363 18.03L311.91 19.4048C318.942 26.8339 322.493 36.1944 322.493 47.64H324.493H326.493C326.493 35.2856 322.624 24.9061 314.816 16.6552L313.363 18.03ZM324.493 47.64H322.493C322.493 56.9674 320.2 64.3753 315.777 70.0334C311.352 75.6953 304.636 79.8073 295.421 82.2466L295.933 84.18L296.445 86.1134C306.27 83.5127 313.834 79.0147 318.929 72.4966C324.026 65.9747 326.493 57.6326 326.493 47.64H324.493ZM238.603 32.52H236.603V72.84H238.603H240.603V32.52H238.603ZM238.603 72.84V74.84H268.423V72.84V70.84H238.603V72.84ZM268.423 72.84V74.84C277.197 74.84 284.128 72.9777 288.843 68.8914L287.533 67.38L286.223 65.8686C282.538 69.0623 276.729 70.84 268.423 70.84V72.84ZM287.533 67.38L288.847 68.8882C293.688 64.6718 296.043 58.9062 296.043 51.84H294.043H292.043C292.043 57.9338 290.058 62.5282 286.219 65.8718L287.533 67.38ZM294.043 51.84H296.043C296.043 45.3915 294.076 40.1189 289.94 36.3004L288.583 37.77L287.226 39.2396C290.37 42.1411 292.043 46.2484 292.043 51.84H294.043ZM288.583 37.77L289.997 36.3558C285.983 32.3418 280.058 30.52 272.623 30.52V32.52V34.52C279.468 34.52 284.183 36.1982 287.169 39.1842L288.583 37.77ZM272.623 32.52V30.52H238.603V32.52V34.52H272.623V32.52ZM380.722 91.74V89.74H378.722V91.74H380.722ZM380.722 129.75H378.722V131.75H380.722V129.75ZM460.522 129.75H462.522V127.75H460.522V129.75ZM460.522 156V158H462.522V156H460.522ZM349.642 156H347.642V158H349.642V156ZM349.642 6.48V4.48H347.642V6.48H349.642ZM458.422 6.48H460.422V4.48H458.422V6.48ZM458.422 32.73V34.73H460.422V32.73H458.422ZM380.722 32.73V30.73H378.722V32.73H380.722ZM380.722 65.07H378.722V67.07H380.722V65.07ZM450.652 65.07H452.652V63.07H450.652V65.07ZM450.652 91.74V93.74H452.652V91.74H450.652ZM380.722 91.74H378.722V129.75H380.722H382.722V91.74H380.722ZM380.722 129.75V131.75H460.522V129.75V127.75H380.722V129.75ZM460.522 129.75H458.522V156H460.522H462.522V129.75H460.522ZM460.522 156V154H349.642V156V158H460.522V156ZM349.642 156H351.642V6.48H349.642H347.642V156H349.642ZM349.642 6.48V8.48H458.422V6.48V4.48H349.642V6.48ZM458.422 6.48H456.422V32.73H458.422H460.422V6.48H458.422ZM458.422 32.73V30.73H380.722V32.73V34.73H458.422V32.73ZM380.722 32.73H378.722V65.07H380.722H382.722V32.73H380.722ZM380.722 65.07V67.07H450.652V65.07V63.07H380.722V65.07ZM450.652 65.07H448.652V91.74H450.652H452.652V65.07H450.652ZM450.652 91.74V89.74H380.722V91.74V93.74H450.652V91.74ZM495.763 138.99L494.272 140.323L495.763 138.99ZM495.973 24.33L494.516 22.9597L494.509 22.9674L495.973 24.33ZM590.263 17.4L588.968 18.9239L588.973 18.9286L588.979 18.9333L590.263 17.4ZM609.163 56.04V58.04H611.341L611.156 55.8697L609.163 56.04ZM579.553 56.04L577.576 56.3416L577.835 58.04H579.553V56.04ZM569.263 36.93L567.971 38.4568L567.992 38.4745L568.013 38.4917L569.263 36.93ZM518.023 43.86L516.44 42.6371L516.44 42.6371L518.023 43.86ZM518.023 119.88L516.423 121.08L516.427 121.086L516.431 121.091L518.023 119.88ZM569.473 126.6L570.809 128.088L570.809 128.088L569.473 126.6ZM579.553 107.07V105.07H577.839L577.576 106.763L579.553 107.07ZM608.953 107.07L610.947 107.22L611.108 105.07H608.953V107.07ZM590.263 146.55L588.968 145.026L588.968 145.026L590.263 146.55ZM545.743 160.83V158.83C525.987 158.83 509.878 151.774 497.254 137.657L495.763 138.99L494.272 140.323C507.688 155.326 524.899 162.83 545.743 162.83V160.83ZM495.763 138.99L497.254 137.657C484.631 123.542 478.233 104.804 478.233 81.24H476.233H474.233C474.233 105.556 480.854 125.318 494.272 140.323L495.763 138.99ZM476.233 81.24H478.233C478.233 57.8224 484.697 39.3812 497.437 25.6926L495.973 24.33L494.509 22.9674C480.929 37.5588 474.233 57.0576 474.233 81.24H476.233ZM495.973 24.33L497.43 25.7003C510.336 11.9792 526.531 5.11999 546.163 5.11999V3.11999V1.11999C525.475 1.11999 508.21 8.40074 494.516 22.9597L495.973 24.33ZM546.163 3.11999V5.11999C564.005 5.11999 578.209 9.77932 588.968 18.9239L590.263 17.4L591.558 15.8761C579.916 5.98066 564.72 1.11999 546.163 1.11999V3.11999ZM590.263 17.4L588.979 18.9333C599.718 27.9273 605.809 40.2882 607.17 56.2103L609.163 56.04L611.156 55.8697C609.716 39.0318 603.208 25.6327 591.547 15.8667L590.263 17.4ZM609.163 56.04V54.04H579.553V56.04V58.04H609.163V56.04ZM579.553 56.04L581.53 55.7384C580.208 47.0693 576.568 40.2132 570.512 35.3683L569.263 36.93L568.013 38.4917C573.157 42.6068 576.378 48.4907 577.576 56.3416L579.553 56.04ZM569.263 36.93L570.555 35.4032C564.65 30.4066 556.943 28 547.633 28V30V32C556.243 32 562.956 34.2134 567.971 38.4568L569.263 36.93ZM547.633 30V28C534.47 28 523.992 32.8639 516.44 42.6371L518.023 43.86L519.605 45.0829C526.333 36.376 535.596 32 547.633 32V30ZM518.023 43.86L516.44 42.6371C508.95 52.3304 505.313 65.2682 505.313 81.24H507.313H509.313C509.313 65.8518 512.816 53.8696 519.605 45.0829L518.023 43.86ZM507.313 81.24H505.313C505.313 97.7573 508.943 111.107 516.423 121.08L518.023 119.88L519.623 118.68C512.822 109.613 509.313 97.2027 509.313 81.24H507.313ZM518.023 119.88L516.431 121.091C523.979 131.007 534.458 135.95 547.633 135.95V133.95V131.95C535.607 131.95 526.347 127.513 519.614 118.669L518.023 119.88ZM547.633 133.95V135.95C557.102 135.95 564.899 133.392 570.809 128.088L569.473 126.6L568.137 125.112C563.127 129.608 556.363 131.95 547.633 131.95V133.95ZM569.473 126.6L570.809 128.088C576.653 122.843 580.207 115.895 581.529 107.377L579.553 107.07L577.576 106.763C576.378 114.485 573.212 120.557 568.137 125.112L569.473 126.6ZM579.553 107.07V109.07H608.953V107.07V105.07H579.553V107.07ZM608.953 107.07L606.958 106.92C605.732 123.272 599.7 135.904 588.968 145.026L590.263 146.55L591.558 148.074C603.226 138.156 609.654 124.468 610.947 107.22L608.953 107.07ZM590.263 146.55L588.968 145.026C578.215 154.166 563.874 158.83 545.743 158.83V160.83V162.83C564.572 162.83 579.911 157.974 591.558 148.074L590.263 146.55ZM618.688 6.48V4.48H616.688V6.48H618.688ZM739.438 6.48H741.438V4.48H739.438V6.48ZM739.438 34.2V36.2H741.438V34.2H739.438ZM694.708 34.2V32.2H692.708V34.2H694.708ZM694.708 156V158H696.708V156H694.708ZM663.628 156H661.628V158H663.628V156ZM663.628 34.2H665.628V32.2H663.628V34.2ZM618.688 34.2H616.688V36.2H618.688V34.2ZM618.688 6.48V8.48H739.438V6.48V4.48H618.688V6.48ZM739.438 6.48H737.438V34.2H739.438H741.438V6.48H739.438ZM739.438 34.2V32.2H694.708V34.2V36.2H739.438V34.2ZM694.708 34.2H692.708V156H694.708H696.708V34.2H694.708ZM694.708 156V154H663.628V156V158H694.708V156ZM663.628 156H665.628V34.2H663.628H661.628V156H663.628ZM663.628 34.2V32.2H618.688V34.2V36.2H663.628V34.2ZM618.688 34.2H620.688V6.48H618.688H616.688V34.2H618.688ZM899.718 74.73L899.168 72.8069L892.035 74.8449L899.226 76.6686L899.718 74.73ZM915.888 143.4L914.509 141.951L914.497 141.962L914.485 141.974L915.888 143.4ZM809.838 156H807.838V158H809.838V156ZM809.838 6.48V4.48H807.838V6.48H809.838ZM911.897 16.35L910.625 17.8931L910.64 17.9052L910.655 17.917L911.897 16.35ZM917.778 63.18L919.363 64.3994L919.363 64.3994L917.778 63.18ZM840.918 31.68V29.68H838.918V31.68H840.918ZM840.918 64.23H838.918V66.23H840.918V64.23ZM888.378 59.82L887.091 58.2886L887.091 58.2886L888.378 59.82ZM840.918 129.75H838.918V131.75H840.918V129.75ZM892.158 124.29L890.822 122.801L890.822 122.801L892.158 124.29ZM892.368 94.68L891.035 96.1719L891.051 96.1853L891.066 96.1985L892.368 94.68ZM840.918 89.43V87.43H838.918V89.43H840.918ZM899.718 74.73L899.226 76.6686C908.57 79.0384 915.38 83.1821 919.872 88.9754C924.364 94.7696 926.698 102.422 926.698 112.11H928.698H930.698C930.698 101.778 928.201 93.1904 923.033 86.5246C917.865 79.8578 910.185 75.3216 900.209 72.7914L899.718 74.73ZM928.698 112.11H926.698C926.698 124.352 922.618 134.241 914.509 141.951L915.888 143.4L917.266 144.849C926.237 136.319 930.698 125.348 930.698 112.11H928.698ZM915.888 143.4L914.485 141.974C906.421 149.906 894.945 154 879.768 154V156V158C895.67 158 908.274 153.694 917.29 144.826L915.888 143.4ZM879.768 156V154H809.838V156V158H879.768V156ZM809.838 156H811.838V6.48H809.838H807.838V156H809.838ZM809.838 6.48V8.48H879.348V6.48V4.48H809.838V6.48ZM879.348 6.48V8.48C892.756 8.48 903.106 11.6928 910.625 17.8931L911.897 16.35L913.17 14.8069C904.729 7.84717 893.379 4.48 879.348 4.48V6.48ZM911.897 16.35L910.655 17.917C918.247 23.9385 922.078 32.2247 922.078 43.02H924.078H926.078C926.078 31.1353 921.788 21.6415 913.14 14.783L911.897 16.35ZM924.078 43.02H922.078C922.078 50.6318 920.082 56.9039 916.192 61.9606L917.778 63.18L919.363 64.3994C923.873 58.5361 926.078 51.3682 926.078 43.02H924.078ZM917.778 63.18L916.192 61.9606C912.299 67.0221 906.674 70.6623 899.168 72.8069L899.718 74.73L900.267 76.653C908.441 74.3177 914.856 70.2579 919.363 64.3994L917.778 63.18ZM873.888 31.68V29.68H840.918V31.68V33.68H873.888V31.68ZM840.918 31.68H838.918V64.23H840.918H842.918V31.68H840.918ZM840.918 64.23V66.23H872.628V64.23V62.23H840.918V64.23ZM872.628 64.23V66.23C879.859 66.23 885.655 64.7187 889.664 61.3514L888.378 59.82L887.091 58.2886C884.1 60.8013 879.396 62.23 872.628 62.23V64.23ZM888.378 59.82L889.664 61.3514C893.68 57.9781 895.628 53.3225 895.628 47.64H893.628H891.628C891.628 52.3174 890.075 55.7819 887.091 58.2886L888.378 59.82ZM893.628 47.64H895.628C895.628 41.8859 893.827 37.2497 889.95 34.1147C886.154 31.0455 880.685 29.68 873.888 29.68V31.68V33.68C880.25 33.68 884.651 34.9745 887.435 37.2253C890.138 39.4103 891.628 42.7541 891.628 47.64H893.628ZM840.918 129.75V131.75H874.308V129.75V127.75H840.918V129.75ZM874.308 129.75V131.75C882.427 131.75 888.933 129.867 893.493 125.779L892.158 124.29L890.822 122.801C887.262 125.993 881.868 127.75 874.308 127.75V129.75ZM892.158 124.29L893.493 125.779C898.053 121.691 900.248 116.066 900.248 109.17H898.248H896.248C896.248 115.154 894.382 119.609 890.822 122.801L892.158 124.29ZM898.248 109.17H900.248C900.248 102.427 898.129 96.9842 893.669 93.1615L892.368 94.68L891.066 96.1985C894.446 99.0958 896.248 103.313 896.248 109.17H898.248ZM892.368 94.68L893.7 93.1881C889.299 89.2592 883.231 87.43 875.778 87.43V89.43V91.43C882.604 91.43 887.596 93.1008 891.035 96.1719L892.368 94.68ZM875.778 89.43V87.43H840.918V89.43V91.43H875.778V89.43ZM840.918 89.43H838.918V129.75H840.918H842.918V89.43H840.918ZM1067.25 138.78L1068.71 140.145L1068.71 140.144L1067.25 138.78ZM965.817 138.78L967.3 137.438L967.293 137.431L967.286 137.423L965.817 138.78ZM965.607 24.12L964.15 22.7497L964.143 22.7568L964.136 22.764L965.607 24.12ZM1067.25 24.12L1068.69 22.7346L1068.68 22.7273L1067.25 24.12ZM987.447 119.46L989.066 118.286L989.061 118.279L989.055 118.271L987.447 119.46ZM1045.62 119.46L1047.2 120.678L1047.21 120.675L1045.62 119.46ZM1045.62 43.86L1047.2 42.6337L1047.2 42.6337L1045.62 43.86ZM987.447 43.86L989.047 45.06L989.054 45.0504L989.061 45.0406L987.447 43.86ZM1067.25 138.78L1065.78 137.415C1052.45 151.706 1035.97 158.83 1016.22 158.83V160.83V162.83C1037.06 162.83 1054.61 155.254 1068.71 140.145L1067.25 138.78ZM1016.22 160.83V158.83C996.466 158.83 980.21 151.708 967.3 137.438L965.817 138.78L964.334 140.122C978.023 155.252 995.367 162.83 1016.22 162.83V160.83ZM965.817 138.78L967.286 137.423C954.255 123.307 947.657 104.578 947.657 81.03H945.657H943.657C943.657 105.362 950.498 125.133 964.347 140.137L965.817 138.78ZM945.657 81.03H947.657C947.657 57.9068 954.183 39.4556 967.077 25.476L965.607 24.12L964.136 22.764C950.43 37.6244 943.657 57.1132 943.657 81.03H945.657ZM965.607 24.12L967.063 25.4903C979.964 11.7754 996.296 4.90999 1016.22 4.90999V2.90999V0.909993C995.258 0.909993 977.85 8.18458 964.15 22.7497L965.607 24.12ZM1016.22 2.90999V4.90999C1035.99 4.90999 1052.48 11.774 1065.81 25.5127L1067.25 24.12L1068.68 22.7273C1054.57 8.18603 1037.04 0.909993 1016.22 0.909993V2.90999ZM1067.25 24.12L1065.8 25.5054C1078.95 39.1962 1085.62 57.6293 1085.62 81.03H1087.62H1089.62C1089.62 56.8307 1082.7 37.3238 1068.69 22.7346L1067.25 24.12ZM1087.62 81.03H1085.62C1085.62 104.572 1078.95 123.299 1065.78 137.416L1067.25 138.78L1068.71 140.144C1082.7 125.141 1089.62 105.368 1089.62 81.03H1087.62ZM987.447 119.46L985.827 120.634C993.213 130.825 1003.41 135.95 1016.22 135.95V133.95V131.95C1004.66 131.95 995.681 127.415 989.066 118.286L987.447 119.46ZM1016.22 133.95V135.95C1029.02 135.95 1039.4 130.831 1047.2 120.678L1045.62 119.46L1044.03 118.242C1036.99 127.409 1027.78 131.95 1016.22 131.95V133.95ZM1045.62 119.46L1047.21 120.675C1054.83 110.703 1058.54 97.4194 1058.54 81.03H1056.54H1054.54C1054.54 96.8406 1050.96 109.177 1044.03 118.245L1045.62 119.46ZM1056.54 81.03H1058.54C1058.54 65.3187 1054.82 52.4567 1047.2 42.6337L1045.62 43.86L1044.04 45.0862C1050.97 54.0233 1054.54 65.9413 1054.54 81.03H1056.54ZM1045.62 43.86L1047.2 42.6337C1039.52 32.7446 1029.13 27.79 1016.22 27.79V29.79V31.79C1027.95 31.79 1037.15 36.2154 1044.04 45.0862L1045.62 43.86ZM1016.22 29.79V27.79C1003.3 27.79 993.095 32.7491 985.832 42.6794L987.447 43.86L989.061 45.0406C995.519 36.2109 1004.49 31.79 1016.22 31.79V29.79ZM987.447 43.86L985.847 42.66C978.382 52.6131 974.737 65.4602 974.737 81.03H976.737H978.737C978.737 66.0798 982.231 54.1469 989.047 45.06L987.447 43.86ZM976.737 81.03H974.737C974.737 97.2784 978.372 110.547 985.838 120.649L987.447 119.46L989.055 118.271C982.241 109.053 978.737 96.7016 978.737 81.03H976.737ZM1223.93 138.78L1225.39 140.145L1225.39 140.144L1223.93 138.78ZM1122.5 138.78L1123.98 137.438L1123.97 137.431L1123.97 137.423L1122.5 138.78ZM1122.29 24.12L1120.83 22.7497L1120.82 22.7568L1120.82 22.764L1122.29 24.12ZM1223.93 24.12L1225.37 22.7346L1225.36 22.7273L1223.93 24.12ZM1144.13 119.46L1145.75 118.286L1145.74 118.279L1145.73 118.271L1144.13 119.46ZM1202.3 119.46L1203.88 120.678L1203.89 120.675L1202.3 119.46ZM1202.3 43.86L1203.88 42.6337L1203.88 42.6337L1202.3 43.86ZM1144.13 43.86L1145.73 45.06L1145.73 45.0504L1145.74 45.0406L1144.13 43.86ZM1223.93 138.78L1222.46 137.415C1209.13 151.706 1192.65 158.83 1172.9 158.83V160.83V162.83C1193.74 162.83 1211.29 155.254 1225.39 140.145L1223.93 138.78ZM1172.9 160.83V158.83C1153.15 158.83 1136.89 151.708 1123.98 137.438L1122.5 138.78L1121.01 140.122C1134.7 155.252 1152.05 162.83 1172.9 162.83V160.83ZM1122.5 138.78L1123.97 137.423C1110.94 123.307 1104.34 104.578 1104.34 81.03H1102.34H1100.34C1100.34 105.362 1107.18 125.133 1121.03 140.137L1122.5 138.78ZM1102.34 81.03H1104.34C1104.34 57.9068 1110.86 39.4556 1123.76 25.476L1122.29 24.12L1120.82 22.764C1107.11 37.6244 1100.34 57.1132 1100.34 81.03H1102.34ZM1122.29 24.12L1123.74 25.4903C1136.64 11.7754 1152.98 4.90999 1172.9 4.90999V2.90999V0.909993C1151.94 0.909993 1134.53 8.18458 1120.83 22.7497L1122.29 24.12ZM1172.9 2.90999V4.90999C1192.67 4.90999 1209.16 11.774 1222.49 25.5127L1223.93 24.12L1225.36 22.7273C1211.25 8.18603 1193.72 0.909993 1172.9 0.909993V2.90999ZM1223.93 24.12L1222.48 25.5054C1235.63 39.1962 1242.3 57.6293 1242.3 81.03H1244.3H1246.3C1246.3 56.8307 1239.38 37.3238 1225.37 22.7346L1223.93 24.12ZM1244.3 81.03H1242.3C1242.3 104.572 1235.63 123.299 1222.46 137.416L1223.93 138.78L1225.39 140.144C1239.38 125.141 1246.3 105.368 1246.3 81.03H1244.3ZM1144.13 119.46L1142.51 120.634C1149.89 130.825 1160.09 135.95 1172.9 135.95V133.95V131.95C1161.34 131.95 1152.36 127.415 1145.75 118.286L1144.13 119.46ZM1172.9 133.95V135.95C1185.7 135.95 1196.08 130.831 1203.88 120.678L1202.3 119.46L1200.71 118.242C1193.67 127.409 1184.45 131.95 1172.9 131.95V133.95ZM1202.3 119.46L1203.89 120.675C1211.51 110.703 1215.22 97.4194 1215.22 81.03H1213.22H1211.22C1211.22 96.8406 1207.64 109.177 1200.71 118.245L1202.3 119.46ZM1213.22 81.03H1215.22C1215.22 65.3187 1211.5 52.4567 1203.88 42.6337L1202.3 43.86L1200.72 45.0862C1207.65 54.0233 1211.22 65.9413 1211.22 81.03H1213.22ZM1202.3 43.86L1203.88 42.6337C1196.2 32.7446 1185.81 27.79 1172.9 27.79V29.79V31.79C1184.63 31.79 1193.83 36.2154 1200.72 45.0862L1202.3 43.86ZM1172.9 29.79V27.79C1159.98 27.79 1149.77 32.7491 1142.51 42.6794L1144.13 43.86L1145.74 45.0406C1152.2 36.2109 1161.17 31.79 1172.9 31.79V29.79ZM1144.13 43.86L1142.53 42.66C1135.06 52.6131 1131.42 65.4602 1131.42 81.03H1133.42H1135.42C1135.42 66.0798 1138.91 54.1469 1145.73 45.06L1144.13 43.86ZM1133.42 81.03H1131.42C1131.42 97.2784 1135.05 110.547 1142.52 120.649L1144.13 119.46L1145.73 118.271C1138.92 109.053 1135.42 96.7016 1135.42 81.03H1133.42ZM1395.94 156V158H1399.81L1397.57 154.841L1395.94 156ZM1357.51 156L1355.86 157.134L1356.45 158H1357.51V156ZM1310.26 87.33L1311.9 86.1963L1310.54 84.2163L1308.84 85.9158L1310.26 87.33ZM1296.4 101.19L1294.98 99.7758L1294.4 100.362V101.19H1296.4ZM1296.4 156V158H1298.4V156H1296.4ZM1265.32 156H1263.32V158H1265.32V156ZM1265.32 6.48V4.48H1263.32V6.48H1265.32ZM1296.4 6.48H1298.4V4.48H1296.4V6.48ZM1296.4 64.23H1294.4V69.3729L1297.87 65.5812L1296.4 64.23ZM1349.32 6.48V4.48H1348.44L1347.84 5.12879L1349.32 6.48ZM1389.01 6.48L1390.46 7.85295L1393.64 4.48H1389.01V6.48ZM1332.31 66.54L1330.85 65.167L1329.72 66.3611L1330.68 67.6992L1332.31 66.54ZM1395.94 156V154H1357.51V156V158H1395.94V156ZM1357.51 156L1359.15 154.866L1311.9 86.1963L1310.26 87.33L1308.61 88.4637L1355.86 157.134L1357.51 156ZM1310.26 87.33L1308.84 85.9158L1294.98 99.7758L1296.4 101.19L1297.81 102.604L1311.67 88.7442L1310.26 87.33ZM1296.4 101.19H1294.4V156H1296.4H1298.4V101.19H1296.4ZM1296.4 156V154H1265.32V156V158H1296.4V156ZM1265.32 156H1267.32V6.48H1265.32H1263.32V156H1265.32ZM1265.32 6.48V8.48H1296.4V6.48V4.48H1265.32V6.48ZM1296.4 6.48H1294.4V64.23H1296.4H1298.4V6.48H1296.4ZM1296.4 64.23L1297.87 65.5812L1350.79 7.8312L1349.32 6.48L1347.84 5.12879L1294.92 62.8788L1296.4 64.23ZM1349.32 6.48V8.48H1389.01V6.48V4.48H1349.32V6.48ZM1389.01 6.48L1387.55 5.10705L1330.85 65.167L1332.31 66.54L1333.76 67.9129L1390.46 7.85295L1389.01 6.48ZM1332.31 66.54L1330.68 67.6992L1394.31 157.159L1395.94 156L1397.57 154.841L1333.94 65.3808L1332.31 66.54ZM1441.8 156V158H1443.8V156H1441.8ZM1410.72 156H1408.72V158H1410.72V156ZM1410.72 6.48V4.48H1408.72V6.48H1410.72ZM1441.8 6.48H1443.8V4.48H1441.8V6.48ZM1441.8 156V154H1410.72V156V158H1441.8V156ZM1410.72 156H1412.72V6.48H1410.72H1408.72V156H1410.72ZM1410.72 6.48V8.48H1441.8V6.48V4.48H1410.72V6.48ZM1441.8 6.48H1439.8V156H1441.8H1443.8V6.48H1441.8ZM1558.83 102.45L1557.13 103.5L1560.83 109.5V102.45H1558.83ZM1558.83 6.48V4.48H1556.83V6.48H1558.83ZM1589.91 6.48H1591.91V4.48H1589.91V6.48ZM1589.91 156V158H1591.91V156H1589.91ZM1559.46 156L1557.76 157.05L1558.35 158H1559.46V156ZM1500.24 60.03L1501.95 58.9797L1498.24 52.9803V60.03H1500.24ZM1500.24 156V158H1502.24V156H1500.24ZM1469.16 156H1467.16V158H1469.16V156ZM1469.16 6.48V4.48H1467.16V6.48H1469.16ZM1499.61 6.48L1501.32 5.42973L1500.73 4.48H1499.61V6.48ZM1558.83 102.45H1560.83V6.48H1558.83H1556.83V102.45H1558.83ZM1558.83 6.48V8.48H1589.91V6.48V4.48H1558.83V6.48ZM1589.91 6.48H1587.91V156H1589.91H1591.91V6.48H1589.91ZM1589.91 156V154H1559.46V156V158H1589.91V156ZM1559.46 156L1561.17 154.95L1501.95 58.9797L1500.24 60.03L1498.54 61.0803L1557.76 157.05L1559.46 156ZM1500.24 60.03H1498.24V156H1500.24H1502.24V60.03H1500.24ZM1500.24 156V154H1469.16V156V158H1500.24V156ZM1469.16 156H1471.16V6.48H1469.16H1467.16V156H1469.16ZM1469.16 6.48V8.48H1499.61V6.48V4.48H1469.16V6.48ZM1499.61 6.48L1497.91 7.53027L1557.13 103.5L1558.83 102.45L1560.54 101.4L1501.32 5.42973L1499.61 6.48ZM1683.38 75.15V73.15H1681.38V75.15H1683.38ZM1745.75 75.15H1747.75V73.15H1745.75V75.15ZM1745.75 156V158H1747.75V156H1745.75ZM1725.59 156L1723.67 156.572L1724.1 158H1725.59V156ZM1720.76 139.83L1722.68 139.258L1721.46 135.178L1719.1 138.721L1720.76 139.83ZM1630.46 137.94L1631.95 136.6L1631.94 136.589L1631.92 136.578L1630.46 137.94ZM1630.67 24.54L1632.13 25.9098L1632.13 25.9023L1632.14 25.8947L1630.67 24.54ZM1724.33 16.56L1723.08 18.1237L1723.09 18.1285L1723.1 18.1333L1724.33 16.56ZM1744.7 53.73L1744.82 55.7262L1747.02 55.5901L1746.68 53.4207L1744.7 53.73ZM1714.25 55.62L1712.29 55.9927L1712.61 57.7254L1714.37 57.6162L1714.25 55.62ZM1703.75 36.72L1705.02 35.1738L1703.75 36.72ZM1652.72 43.86L1651.14 42.6371L1651.14 42.6371L1652.72 43.86ZM1652.72 119.67L1651.12 120.87L1651.12 120.87L1652.72 119.67ZM1706.69 125.55L1707.99 127.073L1708 127.065L1708 127.057L1706.69 125.55ZM1718.87 101.19L1720.85 101.48L1721.18 99.19H1718.87V101.19ZM1683.38 101.19H1681.38V103.19H1683.38V101.19ZM1683.38 75.15V77.15H1745.75V75.15V73.15H1683.38V75.15ZM1745.75 75.15H1743.75V156H1745.75H1747.75V75.15H1745.75ZM1745.75 156V154H1725.59V156V158H1745.75V156ZM1725.59 156L1727.51 155.428L1722.68 139.258L1720.76 139.83L1718.84 140.402L1723.67 156.572L1725.59 156ZM1720.76 139.83L1719.1 138.721C1710.87 151.055 1697.65 157.36 1678.97 157.36V159.36V161.36C1698.65 161.36 1713.29 154.645 1722.42 140.939L1720.76 139.83ZM1678.97 159.36V157.36C1660.07 157.36 1644.44 150.454 1631.95 136.6L1630.46 137.94L1628.97 139.28C1642.24 153.986 1658.95 161.36 1678.97 161.36V159.36ZM1630.46 137.94L1631.92 136.578C1619.33 123.033 1612.93 104.664 1612.93 81.24H1610.93H1608.93C1608.93 105.416 1615.55 124.847 1629 139.302L1630.46 137.94ZM1610.93 81.24H1612.93C1612.93 57.8215 1619.39 39.4554 1632.13 25.9098L1630.67 24.54L1629.21 23.1702C1615.63 37.6246 1608.93 57.0585 1608.93 81.24H1610.93ZM1630.67 24.54L1632.14 25.8947C1644.76 12.1913 1660.87 5.32999 1680.65 5.32999V3.32999V1.32999C1659.83 1.32999 1642.62 8.60869 1629.2 23.1852L1630.67 24.54ZM1680.65 3.32999V5.32999C1698.38 5.32999 1712.47 9.65644 1723.08 18.1237L1724.33 16.56L1725.58 14.9963C1714.07 5.82354 1699.04 1.32999 1680.65 1.32999V3.32999ZM1724.33 16.56L1723.1 18.1333C1733.69 26.4515 1740.27 38.3541 1742.72 54.0393L1744.7 53.73L1746.68 53.4207C1744.09 36.9059 1737.09 24.0285 1725.56 14.9867L1724.33 16.56ZM1744.7 53.73L1744.58 51.7338L1714.13 53.6238L1714.25 55.62L1714.37 57.6162L1744.82 55.7262L1744.7 53.73ZM1714.25 55.62L1716.22 55.2473C1714.6 46.749 1710.9 40.0005 1705.02 35.1738L1703.75 36.72L1702.48 38.2661C1707.52 42.3995 1710.82 48.251 1712.29 55.9927L1714.25 55.62ZM1703.75 36.72L1705.02 35.1738C1699.12 30.3333 1691.49 28 1682.33 28V30V32C1690.81 32 1697.46 34.1467 1702.48 38.2661L1703.75 36.72ZM1682.33 30V28C1669.17 28 1658.69 32.8639 1651.14 42.6371L1652.72 43.86L1654.3 45.0829C1661.03 36.376 1670.29 32 1682.33 32V30ZM1652.72 43.86L1651.14 42.6371C1643.65 52.3304 1640.01 65.2682 1640.01 81.24H1642.01H1644.01C1644.01 65.8518 1647.51 53.8696 1654.3 45.0829L1652.72 43.86ZM1642.01 81.24H1640.01C1640.01 97.6218 1643.64 110.9 1651.12 120.87L1652.72 119.67L1654.32 118.47C1647.52 109.4 1644.01 97.0581 1644.01 81.24H1642.01ZM1652.72 119.67L1651.12 120.87C1658.66 130.927 1669.14 135.95 1682.33 135.95V133.95V131.95C1670.32 131.95 1661.06 127.453 1654.32 118.47L1652.72 119.67ZM1682.33 133.95V135.95C1692.41 135.95 1701 133.018 1707.99 127.073L1706.69 125.55L1705.39 124.027C1699.22 129.282 1691.57 131.95 1682.33 131.95V133.95ZM1706.69 125.55L1708 127.057C1715.02 120.94 1719.26 112.346 1720.85 101.48L1718.87 101.19L1716.89 100.9C1715.4 111.034 1711.52 118.68 1705.38 124.043L1706.69 125.55ZM1718.87 101.19V99.19H1683.38V101.19V103.19H1718.87V101.19ZM1683.38 101.19H1685.38V75.15H1683.38H1681.38V101.19H1683.38ZM1774.35 6.48V4.48H1772.35V6.48H1774.35ZM1892.79 6.48H1894.79V4.48H1892.79V6.48ZM1892.79 30.63L1894.33 31.9113L1894.79 31.3548V30.63H1892.79ZM1810.26 129.54L1808.72 128.259L1805.99 131.54H1810.26V129.54ZM1892.79 129.54H1894.79V127.54H1892.79V129.54ZM1892.79 156V158H1894.79V156H1892.79ZM1769.1 156H1767.1V158H1769.1V156ZM1769.1 131.85L1767.56 130.569L1767.1 131.125V131.85H1769.1ZM1851.63 32.94L1853.17 34.2213L1855.9 30.94H1851.63V32.94ZM1774.35 32.94H1772.35V34.94H1774.35V32.94ZM1774.35 6.48V8.48H1892.79V6.48V4.48H1774.35V6.48ZM1892.79 6.48H1890.79V30.63H1892.79H1894.79V6.48H1892.79ZM1892.79 30.63L1891.25 29.3487L1808.72 128.259L1810.26 129.54L1811.8 130.821L1894.33 31.9113L1892.79 30.63ZM1810.26 129.54V131.54H1892.79V129.54V127.54H1810.26V129.54ZM1892.79 129.54H1890.79V156H1892.79H1894.79V129.54H1892.79ZM1892.79 156V154H1769.1V156V158H1892.79V156ZM1769.1 156H1771.1V131.85H1769.1H1767.1V156H1769.1ZM1769.1 131.85L1770.64 133.131L1853.17 34.2213L1851.63 32.94L1850.09 31.6587L1767.56 130.569L1769.1 131.85ZM1851.63 32.94V30.94H1774.35V32.94V34.94H1851.63V32.94ZM1774.35 32.94H1776.35V6.48H1774.35H1772.35V32.94H1774.35Z" fill="black" mask="url(#path-1-outside-1_18_3)"/>
</svg>
